<?xml version="1.0" encoding="UTF-8"?>
<svg version="1.1" xmlns="http://www.w3.org/2000/svg" width="515" height="484">
<path d="M0 0 C2.63482408 0.00061334 5.26963717 0.00043311 7.90445995 -0.00073051 C14.22240055 -0.0017883 20.5402837 0.00739205 26.85820959 0.02027214 C34.17537197 0.03473927 41.49251468 0.0362653 48.80969238 0.0378418 C68.10450121 0.04831895 87.39929738 0.0762414 106.6940918 0.10205078 C171.3844043 0.16392578 171.3844043 0.16392578 237.3815918 0.22705078 C237.3815918 107.47705078 237.3815918 214.72705078 237.3815918 325.22705078 C199.1015918 325.55705078 160.8215918 325.88705078 121.3815918 326.22705078 C121.0515918 333.81705078 120.7215918 341.40705078 120.3815918 349.22705078 C119.79443391 353.60404594 119.19613395 357.70166886 118.2565918 361.97705078 C118.03704834 363.0123291 117.81750488 364.04760742 117.59130859 365.11425781 C111.82726542 390.98167258 99.41835737 414.74173645 81.3347168 434.12158203 C79.74098456 435.83962539 78.26700254 437.57570414 76.8190918 439.41455078 C59.78799052 459.06582149 33.40231839 472.31495596 8.8190918 479.53955078 C8.00545166 479.78213623 7.19181152 480.02472168 6.35351562 480.2746582 C-9.68092122 484.74773007 -25.77396555 484.50494511 -42.28027344 484.45410156 C-44.89531225 484.45348801 -47.51035139 484.45375737 -50.12539005 484.45483208 C-56.38793899 484.45588843 -62.65042982 484.44672222 -68.9129639 484.43382942 C-76.16833642 484.41934425 -83.42368914 484.41783528 -90.67907715 484.41625977 C-109.80469661 484.40578889 -128.9303033 484.3778664 -148.0559082 484.35205078 C-212.1893457 484.29017578 -212.1893457 484.29017578 -277.6184082 484.22705078 C-277.6184082 376.97705078 -277.6184082 269.72705078 -277.6184082 159.22705078 C-239.3384082 159.22705078 -201.0584082 159.22705078 -161.6184082 159.22705078 C-161.6184082 152.62705078 -161.6184082 146.02705078 -161.6184082 139.22705078 C-157.33209643 103.03152915 -142.56642033 71.68706364 -117.6184082 45.22705078 C-116.94680664 44.49099609 -116.27520508 43.75494141 -115.58325195 42.99658203 C-95.58811415 21.88022155 -66.81135234 8.00173406 -38.6184082 2.22705078 C-37.42997928 1.96742145 -37.42997928 1.96742145 -36.21754169 1.70254707 C-24.25507542 -0.53524275 -12.12019394 -0.03692994 0 0 Z " fill="#FBC33D" transform="translate(277.618408203125,-0.22705078125)"/>
<path d="M0 0 C2.62480762 0.00061334 5.24961556 0.00034454 7.87442303 -0.00073051 C14.1681682 -0.00178826 20.46185569 0.00739175 26.7555861 0.02027214 C34.04478184 0.03473969 41.33395782 0.03626533 48.62316895 0.0378418 C67.84408458 0.0483188 87.06498751 0.07624126 106.28588867 0.10205078 C149.24776367 0.14330078 192.20963867 0.18455078 236.47338867 0.22705078 C236.47338867 107.14705078 236.47338867 214.06705078 236.47338867 324.22705078 C198.19338867 324.22705078 159.91338867 324.22705078 120.47338867 324.22705078 C119.81338867 312.34705078 119.15338867 300.46705078 118.47338867 288.22705078 C116.75815162 280.27458809 115.07891381 272.84836803 112.47338867 265.22705078 C112.22008789 264.46537598 111.96678711 263.70370117 111.70581055 262.91894531 C105.32863912 243.9997259 95.39899023 227.39173292 82.47338867 212.22705078 C81.77729492 211.39689453 81.08120117 210.56673828 80.36401367 209.71142578 C74.94777441 203.45009955 69.03408437 198.25966254 62.47338867 193.22705078 C61.62131836 192.55931641 60.76924805 191.89158203 59.89135742 191.20361328 C41.23596662 177.05124785 18.38909631 166.06599864 -4.74951172 162.45874023 C-5.40977108 162.35394997 -6.07003044 162.24915971 -6.75029767 162.14119399 C-22.06247635 159.75461768 -37.27109507 159.48323459 -52.73796725 159.518152 C-56.55090314 159.52135633 -60.36366899 159.49601825 -64.17652893 159.47419739 C-71.34018125 159.4372875 -78.50364415 159.42464157 -85.6673823 159.42157298 C-93.84699425 159.41682322 -102.02642308 159.38371455 -110.20595253 159.34867513 C-126.97949489 159.27743266 -143.75292047 159.2403364 -160.52661133 159.22705078 C-160.5783131 155.30075301 -160.61536049 151.37459214 -160.63990784 147.44802856 C-160.65515236 145.46975725 -160.68138435 143.49158027 -160.70788574 141.51342773 C-160.76745149 130.10929471 -159.01822185 120.03921486 -155.52661133 109.22705078 C-155.27492188 108.42654297 -155.02323242 107.62603516 -154.76391602 106.80126953 C-147.1936259 83.22386284 -134.59993533 63.08643942 -117.52661133 45.22705078 C-116.85758789 44.49486328 -116.18856445 43.76267578 -115.49926758 43.00830078 C-95.52297209 21.87881132 -66.71198141 7.99936594 -38.52661133 2.22705078 C-37.33658493 1.96742145 -37.33658493 1.96742145 -36.12251759 1.70254707 C-24.18949072 -0.52772977 -12.0902735 -0.03698218 0 0 Z " fill="#F26C47" transform="translate(277.526611328125,-0.22705078125)"/>
<path d="M0 0 C0.33 0 0.66 0 1 0 C1 107.25 1 214.5 1 325 C-39.981875 325.061875 -80.96375 325.12375 -123.1875 325.1875 C-136.10028076 325.21481201 -149.01306152 325.24212402 -162.31713867 325.27026367 C-178.15490723 325.28381348 -178.15490723 325.28381348 -185.5827179 325.28633118 C-190.74099523 325.28911218 -195.89920092 325.30004559 -201.05744934 325.31672668 C-207.65946331 325.33804468 -214.26136987 325.34344292 -220.8634249 325.33921683 C-223.27240237 325.34009911 -225.68138506 325.34594855 -228.0903343 325.35764539 C-274.10803794 325.57051043 -315.52325698 312.47892654 -349 280 C-350.66666667 278.33333333 -352.33333333 276.66666667 -354 275 C-354.53882813 274.50757813 -355.07765625 274.01515625 -355.6328125 273.5078125 C-365.5883725 264.28197941 -372.73049413 252.29941459 -379.125 240.4609375 C-380.21253609 238.45352713 -381.34048146 236.465079 -382.56640625 234.5390625 C-384.47394826 231.1605821 -385.68651959 227.66379089 -386.9375 224 C-387.19764893 223.2467041 -387.45779785 222.4934082 -387.72583008 221.71728516 C-388.49265516 219.48104781 -389.24842819 217.24140421 -390 215 C-390.38671875 213.85273438 -390.7734375 212.70546875 -391.171875 211.5234375 C-395.56505793 197.90457041 -398.19577739 183.9456245 -398.125 169.625 C-398.12886719 168.81933594 -398.13273437 168.01367188 -398.13671875 167.18359375 C-398.12678571 161.25357143 -398.12678571 161.25357143 -397 159 C-379.41210307 158.8821419 -361.82433284 158.79451862 -344.23612881 158.74093914 C-336.06589334 158.71537765 -327.895906 158.68066136 -319.72583008 158.62280273 C-312.58799273 158.57227917 -305.45033536 158.54054985 -298.31232411 158.52955753 C-294.54794367 158.52315251 -290.78407716 158.50858937 -287.01986504 158.47134972 C-259.59414732 158.21110365 -232.02699434 159.64282219 -207 172 C-206.18611816 172.39380859 -205.37223633 172.78761719 -204.53369141 173.19335938 C-190.82077779 179.89401788 -178.41096564 187.48348039 -167.20703125 197.9453125 C-165.29151902 199.72860353 -163.33474233 201.40345419 -161.3125 203.0625 C-136.28819464 224.54508233 -119.78085115 260.97246898 -116.3125 293.3125 C-115.83499783 303.53104652 -116 313.77030297 -116 324 C-77.72 324 -39.44 324 0 324 C0 217.08 0 110.16 0 0 Z " fill="#F9A51A" transform="translate(514,0)"/>
<path d="M0 0 C0 3.72038015 -0.90324391 4.44902879 -3.3125 7.1875 C-3.92738281 7.90292969 -4.54226562 8.61835937 -5.17578125 9.35546875 C-7 11 -7 11 -10 11 C-8.89718873 9.72799029 -7.79269231 8.45744147 -6.6875 7.1875 C-6.07261719 6.47980469 -5.45773438 5.77210937 -4.82421875 5.04296875 C-3.26665665 3.29863261 -1.67341125 1.63221959 0 0 Z " fill="#F8A58E" transform="translate(162,43)"/>
<path d="M0 0 C0.66 0.33 1.32 0.66 2 1 C-5.29840547 8.48291572 -5.29840547 8.48291572 -9 11 C-9.66 10.67 -10.32 10.34 -11 10 C-5.555 5.05 -5.555 5.05 0 0 Z " fill="#F8B5A2" transform="translate(174,32)"/>
</svg>
